<svg width="165" height="34" viewBox="0 0 165 34" fill="none" xmlns="http://www.w3.org/2000/svg">
<rect width="165" height="34" rx="4" fill="#A6B0C3"/>
<path d="M46.858 22.14C46.0273 22.14 45.3133 22.0047 44.716 21.734C44.1187 21.454 43.652 21.0293 43.316 20.46C42.98 19.8813 42.798 19.1627 42.77 18.304C42.7607 17.9027 42.756 17.506 42.756 17.114C42.756 16.722 42.7607 16.3207 42.77 15.91C42.798 15.0607 42.9847 14.3513 43.33 13.782C43.6753 13.2127 44.1467 12.7833 44.744 12.494C45.3507 12.2047 46.0553 12.06 46.858 12.06C47.6607 12.06 48.3653 12.2047 48.972 12.494C49.5787 12.7833 50.0547 13.2127 50.4 13.782C50.7453 14.3513 50.932 15.0607 50.96 15.91C50.9787 16.3207 50.988 16.722 50.988 17.114C50.988 17.506 50.9787 17.9027 50.96 18.304C50.932 19.1627 50.75 19.8813 50.414 20.46C50.078 21.0293 49.6067 21.454 49 21.734C48.4027 22.0047 47.6887 22.14 46.858 22.14ZM46.858 20.53C47.4647 20.53 47.9593 20.3527 48.342 19.998C48.7247 19.634 48.93 19.046 48.958 18.234C48.9767 17.8233 48.986 17.4453 48.986 17.1C48.986 16.7453 48.9767 16.3673 48.958 15.966C48.9393 15.4247 48.8367 14.986 48.65 14.65C48.4727 14.3047 48.23 14.0573 47.922 13.908C47.614 13.7493 47.2593 13.67 46.858 13.67C46.466 13.67 46.116 13.7493 45.808 13.908C45.5 14.0573 45.2527 14.3047 45.066 14.65C44.8887 14.986 44.7907 15.4247 44.772 15.966C44.7627 16.3673 44.758 16.7453 44.758 17.1C44.758 17.4453 44.7627 17.8233 44.772 18.234C44.8 19.046 45.0053 19.634 45.388 19.998C45.7707 20.3527 46.2607 20.53 46.858 20.53ZM52.9944 22C52.901 22 52.8217 21.9673 52.7564 21.902C52.691 21.8367 52.6584 21.7573 52.6584 21.664V15.07C52.6584 14.9673 52.691 14.8833 52.7564 14.818C52.8217 14.7527 52.901 14.72 52.9944 14.72H54.1284C54.2217 14.72 54.301 14.7527 54.3664 14.818C54.441 14.8833 54.4784 14.9673 54.4784 15.07V15.644C54.693 15.3453 54.9684 15.1167 55.3044 14.958C55.6497 14.7993 56.0464 14.72 56.4944 14.72H57.0684C57.171 14.72 57.2504 14.7527 57.3064 14.818C57.3717 14.8833 57.4044 14.9627 57.4044 15.056V16.064C57.4044 16.1573 57.3717 16.2367 57.3064 16.302C57.2504 16.3673 57.171 16.4 57.0684 16.4H55.9764C55.5284 16.4 55.1784 16.526 54.9264 16.778C54.6837 17.03 54.5624 17.3753 54.5624 17.814V21.664C54.5624 21.7573 54.5297 21.8367 54.4644 21.902C54.399 21.9673 54.315 22 54.2124 22H52.9944ZM61.0889 22.14C60.6036 22.14 60.1742 22.0607 59.8009 21.902C59.4369 21.734 59.1336 21.5007 58.8909 21.202C58.6482 20.9033 58.4616 20.5533 58.3309 20.152C58.2002 19.7413 58.1256 19.2933 58.1069 18.808C58.0976 18.64 58.0929 18.4907 58.0929 18.36C58.0929 18.22 58.0976 18.066 58.1069 17.898C58.1256 17.4313 58.1956 16.9973 58.3169 16.596C58.4476 16.1947 58.6342 15.8447 58.8769 15.546C59.1289 15.238 59.4369 15 59.8009 14.832C60.1742 14.664 60.6036 14.58 61.0889 14.58C61.5929 14.58 62.0176 14.6687 62.3629 14.846C62.7176 15.014 63.0116 15.2333 63.2449 15.504V12.396C63.2449 12.3027 63.2729 12.2233 63.3289 12.158C63.3942 12.0927 63.4782 12.06 63.5809 12.06H64.7709C64.8642 12.06 64.9436 12.0927 65.0089 12.158C65.0742 12.2233 65.1069 12.3027 65.1069 12.396V21.664C65.1069 21.7573 65.0742 21.8367 65.0089 21.902C64.9436 21.9673 64.8642 22 64.7709 22H63.6649C63.5622 22 63.4782 21.9673 63.4129 21.902C63.3569 21.8367 63.3289 21.7573 63.3289 21.664V21.146C63.0956 21.4353 62.7969 21.6733 62.4329 21.86C62.0782 22.0467 61.6302 22.14 61.0889 22.14ZM61.6069 20.642C61.9989 20.642 62.3116 20.5533 62.5449 20.376C62.7782 20.1987 62.9509 19.9747 63.0629 19.704C63.1749 19.424 63.2356 19.1393 63.2449 18.85C63.2542 18.682 63.2589 18.5047 63.2589 18.318C63.2589 18.122 63.2542 17.94 63.2449 17.772C63.2356 17.492 63.1702 17.226 63.0489 16.974C62.9276 16.7127 62.7502 16.498 62.5169 16.33C62.2836 16.162 61.9802 16.078 61.6069 16.078C61.2149 16.078 60.9022 16.1667 60.6689 16.344C60.4449 16.512 60.2816 16.736 60.1789 17.016C60.0762 17.296 60.0156 17.604 59.9969 17.94C59.9876 18.22 59.9876 18.5 59.9969 18.78C60.0156 19.116 60.0762 19.424 60.1789 19.704C60.2816 19.984 60.4449 20.2127 60.6689 20.39C60.9022 20.558 61.2149 20.642 61.6069 20.642ZM70.1088 22.14C69.0728 22.14 68.2515 21.8413 67.6448 21.244C67.0382 20.6467 66.7115 19.7973 66.6648 18.696C66.6555 18.6027 66.6508 18.486 66.6508 18.346C66.6508 18.1967 66.6555 18.08 66.6648 17.996C66.7022 17.296 66.8608 16.6893 67.1408 16.176C67.4302 15.6627 67.8268 15.2707 68.3308 15C68.8348 14.72 69.4275 14.58 70.1088 14.58C70.8648 14.58 71.4995 14.7387 72.0128 15.056C72.5262 15.364 72.9135 15.798 73.1748 16.358C73.4362 16.9087 73.5668 17.548 73.5668 18.276V18.57C73.5668 18.6633 73.5342 18.7427 73.4688 18.808C73.4035 18.8733 73.3195 18.906 73.2168 18.906H68.5688C68.5688 18.906 68.5688 18.92 68.5688 18.948C68.5688 18.976 68.5688 18.9993 68.5688 19.018C68.5782 19.3447 68.6388 19.648 68.7508 19.928C68.8722 20.1987 69.0448 20.418 69.2688 20.586C69.5022 20.754 69.7775 20.838 70.0948 20.838C70.3562 20.838 70.5755 20.8007 70.7528 20.726C70.9302 20.642 71.0748 20.5487 71.1868 20.446C71.2988 20.3433 71.3782 20.2593 71.4248 20.194C71.5088 20.082 71.5742 20.0167 71.6208 19.998C71.6768 19.97 71.7562 19.956 71.8588 19.956H73.0628C73.1562 19.956 73.2308 19.984 73.2868 20.04C73.3522 20.096 73.3802 20.166 73.3708 20.25C73.3615 20.3993 73.2822 20.5813 73.1328 20.796C72.9928 21.0107 72.7875 21.2207 72.5168 21.426C72.2462 21.6313 71.9055 21.804 71.4948 21.944C71.0935 22.0747 70.6315 22.14 70.1088 22.14ZM68.5688 17.73H71.6628V17.688C71.6628 17.324 71.6022 17.0067 71.4808 16.736C71.3595 16.4653 71.1822 16.2507 70.9488 16.092C70.7155 15.9333 70.4355 15.854 70.1088 15.854C69.7822 15.854 69.5022 15.9333 69.2688 16.092C69.0355 16.2507 68.8582 16.4653 68.7368 16.736C68.6248 17.0067 68.5688 17.324 68.5688 17.688V17.73ZM75.3889 22C75.2956 22 75.2162 21.9673 75.1509 21.902C75.0856 21.8367 75.0529 21.7573 75.0529 21.664V15.07C75.0529 14.9673 75.0856 14.8833 75.1509 14.818C75.2162 14.7527 75.2956 14.72 75.3889 14.72H76.5229C76.6162 14.72 76.6956 14.7527 76.7609 14.818C76.8356 14.8833 76.8729 14.9673 76.8729 15.07V15.644C77.0876 15.3453 77.3629 15.1167 77.6989 14.958C78.0442 14.7993 78.4409 14.72 78.8889 14.72H79.4629C79.5656 14.72 79.6449 14.7527 79.7009 14.818C79.7662 14.8833 79.7989 14.9627 79.7989 15.056V16.064C79.7989 16.1573 79.7662 16.2367 79.7009 16.302C79.6449 16.3673 79.5656 16.4 79.4629 16.4H78.3709C77.9229 16.4 77.5729 16.526 77.3209 16.778C77.0782 17.03 76.9569 17.3753 76.9569 17.814V21.664C76.9569 21.7573 76.9242 21.8367 76.8589 21.902C76.7936 21.9673 76.7096 22 76.6069 22H75.3889ZM87.8212 22.14C87.2799 22.14 86.8272 22.0467 86.4632 21.86C86.1086 21.6733 85.8146 21.4353 85.5812 21.146V21.664C85.5812 21.7573 85.5486 21.8367 85.4832 21.902C85.4272 21.9673 85.3479 22 85.2452 22H84.1392C84.0459 22 83.9666 21.9673 83.9012 21.902C83.8359 21.8367 83.8032 21.7573 83.8032 21.664V12.396C83.8032 12.3027 83.8359 12.2233 83.9012 12.158C83.9666 12.0927 84.0459 12.06 84.1392 12.06H85.3292C85.4319 12.06 85.5112 12.0927 85.5672 12.158C85.6326 12.2233 85.6652 12.3027 85.6652 12.396V15.504C85.8986 15.2333 86.1879 15.014 86.5332 14.846C86.8879 14.6687 87.3172 14.58 87.8212 14.58C88.3159 14.58 88.7452 14.664 89.1092 14.832C89.4732 15 89.7766 15.238 90.0192 15.546C90.2712 15.8447 90.4626 16.1947 90.5932 16.596C90.7239 16.9973 90.7939 17.4313 90.8032 17.898C90.8126 18.066 90.8172 18.22 90.8172 18.36C90.8172 18.4907 90.8126 18.64 90.8032 18.808C90.7846 19.2933 90.7099 19.7413 90.5792 20.152C90.4486 20.5533 90.2619 20.9033 90.0192 21.202C89.7766 21.5007 89.4732 21.734 89.1092 21.902C88.7452 22.0607 88.3159 22.14 87.8212 22.14ZM87.3032 20.642C87.7046 20.642 88.0172 20.558 88.2412 20.39C88.4652 20.2127 88.6239 19.984 88.7172 19.704C88.8199 19.424 88.8806 19.116 88.8992 18.78C88.9179 18.5 88.9179 18.22 88.8992 17.94C88.8806 17.604 88.8199 17.296 88.7172 17.016C88.6239 16.736 88.4652 16.512 88.2412 16.344C88.0172 16.1667 87.7046 16.078 87.3032 16.078C86.9299 16.078 86.6266 16.162 86.3932 16.33C86.1599 16.498 85.9826 16.7127 85.8612 16.974C85.7399 17.226 85.6746 17.492 85.6652 17.772C85.6559 17.94 85.6512 18.122 85.6512 18.318C85.6512 18.5047 85.6559 18.682 85.6652 18.85C85.6839 19.1393 85.7446 19.424 85.8472 19.704C85.9592 19.9747 86.1319 20.1987 86.3652 20.376C86.6079 20.5533 86.9206 20.642 87.3032 20.642ZM93.4041 24.66C93.3294 24.66 93.2641 24.632 93.2081 24.576C93.1521 24.52 93.1241 24.4547 93.1241 24.38C93.1241 24.3427 93.1241 24.3053 93.1241 24.268C93.1334 24.24 93.1521 24.2027 93.1801 24.156L94.2721 21.566L91.5841 15.224C91.5467 15.1307 91.5281 15.0653 91.5281 15.028C91.5374 14.944 91.5701 14.874 91.6261 14.818C91.6821 14.7527 91.7521 14.72 91.8361 14.72H92.9701C93.0821 14.72 93.1661 14.748 93.2221 14.804C93.2781 14.86 93.3201 14.9207 93.3481 14.986L95.2101 19.564L97.1281 14.986C97.1561 14.9113 97.1981 14.8507 97.2541 14.804C97.3101 14.748 97.3941 14.72 97.5061 14.72H98.6261C98.7007 14.72 98.7661 14.748 98.8221 14.804C98.8874 14.86 98.9201 14.9253 98.9201 15C98.9201 15.056 98.9014 15.1307 98.8641 15.224L94.9021 24.394C94.8647 24.4687 94.8181 24.5293 94.7621 24.576C94.7061 24.632 94.6221 24.66 94.5101 24.66H93.4041ZM103.293 22C103.2 22 103.121 21.9673 103.055 21.902C102.99 21.8367 102.957 21.7573 102.957 21.664V15.056C102.957 14.9627 102.99 14.8833 103.055 14.818C103.121 14.7527 103.2 14.72 103.293 14.72H104.441C104.535 14.72 104.614 14.7527 104.679 14.818C104.745 14.8833 104.777 14.9627 104.777 15.056V15.63C105.02 15.3313 105.328 15.084 105.701 14.888C106.084 14.6827 106.555 14.58 107.115 14.58C107.685 14.58 108.179 14.7107 108.599 14.972C109.019 15.224 109.341 15.5833 109.565 16.05C109.799 16.5167 109.915 17.0767 109.915 17.73V21.664C109.915 21.7573 109.883 21.8367 109.817 21.902C109.752 21.9673 109.673 22 109.579 22H108.347C108.254 22 108.175 21.9673 108.109 21.902C108.044 21.8367 108.011 21.7573 108.011 21.664V17.814C108.011 17.2727 107.876 16.848 107.605 16.54C107.344 16.232 106.961 16.078 106.457 16.078C105.972 16.078 105.585 16.232 105.295 16.54C105.006 16.848 104.861 17.2727 104.861 17.814V21.664C104.861 21.7573 104.829 21.8367 104.763 21.902C104.698 21.9673 104.619 22 104.525 22H103.293ZM114.83 22.14C113.794 22.14 112.972 21.8413 112.366 21.244C111.759 20.6467 111.432 19.7973 111.386 18.696C111.376 18.6027 111.372 18.486 111.372 18.346C111.372 18.1967 111.376 18.08 111.386 17.996C111.423 17.296 111.582 16.6893 111.862 16.176C112.151 15.6627 112.548 15.2707 113.052 15C113.556 14.72 114.148 14.58 114.83 14.58C115.586 14.58 116.22 14.7387 116.734 15.056C117.247 15.364 117.634 15.798 117.896 16.358C118.157 16.9087 118.288 17.548 118.288 18.276V18.57C118.288 18.6633 118.255 18.7427 118.19 18.808C118.124 18.8733 118.04 18.906 117.938 18.906H113.29C113.29 18.906 113.29 18.92 113.29 18.948C113.29 18.976 113.29 18.9993 113.29 19.018C113.299 19.3447 113.36 19.648 113.472 19.928C113.593 20.1987 113.766 20.418 113.99 20.586C114.223 20.754 114.498 20.838 114.816 20.838C115.077 20.838 115.296 20.8007 115.474 20.726C115.651 20.642 115.796 20.5487 115.908 20.446C116.02 20.3433 116.099 20.2593 116.146 20.194C116.23 20.082 116.295 20.0167 116.342 19.998C116.398 19.97 116.477 19.956 116.58 19.956H117.784C117.877 19.956 117.952 19.984 118.008 20.04C118.073 20.096 118.101 20.166 118.092 20.25C118.082 20.3993 118.003 20.5813 117.854 20.796C117.714 21.0107 117.508 21.2207 117.238 21.426C116.967 21.6313 116.626 21.804 116.216 21.944C115.814 22.0747 115.352 22.14 114.83 22.14ZM113.29 17.73H116.384V17.688C116.384 17.324 116.323 17.0067 116.202 16.736C116.08 16.4653 115.903 16.2507 115.67 16.092C115.436 15.9333 115.156 15.854 114.83 15.854C114.503 15.854 114.223 15.9333 113.99 16.092C113.756 16.2507 113.579 16.4653 113.458 16.736C113.346 17.0067 113.29 17.324 113.29 17.688V17.73ZM121.557 22C121.426 22 121.328 21.9673 121.263 21.902C121.197 21.8367 121.141 21.7527 121.095 21.65L119.093 15.154C119.083 15.1073 119.079 15.0653 119.079 15.028C119.079 14.944 119.107 14.874 119.163 14.818C119.228 14.7527 119.298 14.72 119.373 14.72H120.409C120.521 14.72 120.609 14.7527 120.675 14.818C120.74 14.874 120.777 14.93 120.787 14.986L122.159 19.62L123.615 15.028C123.633 14.9627 123.675 14.8973 123.741 14.832C123.806 14.7573 123.904 14.72 124.035 14.72H124.735C124.865 14.72 124.963 14.7573 125.029 14.832C125.094 14.8973 125.136 14.9627 125.155 15.028L126.611 19.62L127.983 14.986C127.992 14.93 128.025 14.874 128.081 14.818C128.146 14.7527 128.235 14.72 128.347 14.72H129.383C129.467 14.72 129.537 14.7527 129.593 14.818C129.658 14.874 129.691 14.944 129.691 15.028C129.691 15.0653 129.681 15.1073 129.663 15.154L127.661 21.65C127.633 21.7527 127.581 21.8367 127.507 21.902C127.441 21.9673 127.343 22 127.213 22H126.303C126.172 22 126.069 21.9673 125.995 21.902C125.92 21.8367 125.869 21.7527 125.841 21.65L124.385 17.226L122.929 21.65C122.891 21.7527 122.835 21.8367 122.761 21.902C122.695 21.9673 122.593 22 122.453 22H121.557ZM133.984 22.14C132.948 22.14 132.126 21.8413 131.52 21.244C130.913 20.6467 130.586 19.7973 130.54 18.696C130.53 18.6027 130.526 18.486 130.526 18.346C130.526 18.1967 130.53 18.08 130.54 17.996C130.577 17.296 130.736 16.6893 131.016 16.176C131.305 15.6627 131.702 15.2707 132.206 15C132.71 14.72 133.302 14.58 133.984 14.58C134.74 14.58 135.374 14.7387 135.888 15.056C136.401 15.364 136.788 15.798 137.05 16.358C137.311 16.9087 137.442 17.548 137.442 18.276V18.57C137.442 18.6633 137.409 18.7427 137.344 18.808C137.278 18.8733 137.194 18.906 137.092 18.906H132.444C132.444 18.906 132.444 18.92 132.444 18.948C132.444 18.976 132.444 18.9993 132.444 19.018C132.453 19.3447 132.514 19.648 132.626 19.928C132.747 20.1987 132.92 20.418 133.144 20.586C133.377 20.754 133.652 20.838 133.97 20.838C134.231 20.838 134.45 20.8007 134.628 20.726C134.805 20.642 134.95 20.5487 135.062 20.446C135.174 20.3433 135.253 20.2593 135.3 20.194C135.384 20.082 135.449 20.0167 135.496 19.998C135.552 19.97 135.631 19.956 135.734 19.956H136.938C137.031 19.956 137.106 19.984 137.162 20.04C137.227 20.096 137.255 20.166 137.246 20.25C137.236 20.3993 137.157 20.5813 137.008 20.796C136.868 21.0107 136.662 21.2207 136.392 21.426C136.121 21.6313 135.78 21.804 135.37 21.944C134.968 22.0747 134.506 22.14 133.984 22.14ZM132.444 17.73H135.538V17.688C135.538 17.324 135.477 17.0067 135.356 16.736C135.234 16.4653 135.057 16.2507 134.824 16.092C134.59 15.9333 134.31 15.854 133.984 15.854C133.657 15.854 133.377 15.9333 133.144 16.092C132.91 16.2507 132.733 16.4653 132.612 16.736C132.5 17.0067 132.444 17.324 132.444 17.688V17.73ZM141.686 22.14C141.126 22.14 140.645 22.0747 140.244 21.944C139.852 21.8133 139.53 21.65 139.278 21.454C139.026 21.258 138.839 21.062 138.718 20.866C138.597 20.67 138.531 20.5067 138.522 20.376C138.513 20.2733 138.541 20.194 138.606 20.138C138.681 20.0727 138.76 20.04 138.844 20.04H139.95C139.987 20.04 140.02 20.0447 140.048 20.054C140.076 20.0633 140.113 20.0913 140.16 20.138C140.281 20.2407 140.407 20.348 140.538 20.46C140.678 20.572 140.841 20.67 141.028 20.754C141.215 20.8287 141.448 20.866 141.728 20.866C142.092 20.866 142.395 20.796 142.638 20.656C142.89 20.5067 143.016 20.2967 143.016 20.026C143.016 19.83 142.96 19.6713 142.848 19.55C142.745 19.4287 142.549 19.3213 142.26 19.228C141.971 19.1253 141.56 19.018 141.028 18.906C140.505 18.7847 140.071 18.6307 139.726 18.444C139.381 18.2573 139.124 18.024 138.956 17.744C138.788 17.464 138.704 17.1373 138.704 16.764C138.704 16.4 138.811 16.0547 139.026 15.728C139.25 15.392 139.577 15.1167 140.006 14.902C140.445 14.6873 140.986 14.58 141.63 14.58C142.134 14.58 142.573 14.6453 142.946 14.776C143.319 14.8973 143.627 15.0513 143.87 15.238C144.122 15.4247 144.313 15.616 144.444 15.812C144.575 15.9987 144.645 16.162 144.654 16.302C144.663 16.4047 144.635 16.4887 144.57 16.554C144.505 16.61 144.43 16.638 144.346 16.638H143.31C143.263 16.638 143.221 16.6287 143.184 16.61C143.147 16.5913 143.109 16.568 143.072 16.54C142.969 16.4467 142.857 16.3487 142.736 16.246C142.615 16.1433 142.465 16.0547 142.288 15.98C142.12 15.896 141.896 15.854 141.616 15.854C141.261 15.854 140.991 15.9333 140.804 16.092C140.617 16.2413 140.524 16.4327 140.524 16.666C140.524 16.8247 140.566 16.9647 140.65 17.086C140.743 17.198 140.925 17.3053 141.196 17.408C141.467 17.5107 141.877 17.618 142.428 17.73C143.053 17.842 143.548 18.01 143.912 18.234C144.285 18.4487 144.547 18.7007 144.696 18.99C144.855 19.27 144.934 19.5827 144.934 19.928C144.934 20.348 144.808 20.726 144.556 21.062C144.313 21.398 143.949 21.664 143.464 21.86C142.988 22.0467 142.395 22.14 141.686 22.14ZM149.642 22C149.082 22 148.61 21.902 148.228 21.706C147.845 21.51 147.56 21.2207 147.374 20.838C147.187 20.446 147.094 19.9607 147.094 19.382V16.204H145.988C145.894 16.204 145.815 16.1713 145.75 16.106C145.684 16.0407 145.652 15.9613 145.652 15.868V15.056C145.652 14.9627 145.684 14.8833 145.75 14.818C145.815 14.7527 145.894 14.72 145.988 14.72H147.094V12.396C147.094 12.3027 147.122 12.2233 147.178 12.158C147.243 12.0927 147.327 12.06 147.43 12.06H148.564C148.657 12.06 148.736 12.0927 148.802 12.158C148.867 12.2233 148.9 12.3027 148.9 12.396V14.72H150.65C150.743 14.72 150.822 14.7527 150.888 14.818C150.953 14.8833 150.986 14.9627 150.986 15.056V15.868C150.986 15.9613 150.953 16.0407 150.888 16.106C150.822 16.1713 150.743 16.204 150.65 16.204H148.9V19.242C148.9 19.6247 148.965 19.9233 149.096 20.138C149.236 20.3527 149.474 20.46 149.81 20.46H150.776C150.869 20.46 150.948 20.4927 151.014 20.558C151.079 20.6233 151.112 20.7027 151.112 20.796V21.664C151.112 21.7573 151.079 21.8367 151.014 21.902C150.948 21.9673 150.869 22 150.776 22H149.642Z" fill="white"/>
<path d="M32 9H18C16.8954 9 16 9.89543 16 11V25C16 26.1046 16.8954 27 18 27H32C33.1046 27 34 26.1046 34 25V11C34 9.89543 33.1046 9 32 9Z" stroke="white" stroke-width="2" stroke-linecap="round" stroke-linejoin="round"/>
<path d="M29 7V11" stroke="white" stroke-width="2" stroke-linecap="round" stroke-linejoin="round"/>
<path d="M21 7V11" stroke="white" stroke-width="2" stroke-linecap="round" stroke-linejoin="round"/>
<path d="M16 15H34" stroke="white" stroke-width="2" stroke-linecap="round" stroke-linejoin="round"/>
</svg>
