<svg width="115" height="20" viewBox="0 0 115 20" fill="none" xmlns="http://www.w3.org/2000/svg">
<path d="M9.14285 16.6628C13.64 16.6628 17.2857 13.1565 17.2857 8.83138C17.2857 4.50623 13.64 1 9.14285 1C4.64568 1 1 4.50623 1 8.83138C1 13.1565 4.64568 16.6628 9.14285 16.6628Z" stroke="#B8B9BE" stroke-linecap="round" stroke-linejoin="round"/>
<path d="M15.25 14.7049L20 19.2732" stroke="#B8B9BE" stroke-linecap="round" stroke-linejoin="round"/>
<path d="M37.056 15.13C36.302 15.13 35.6693 15.0173 35.158 14.792C34.6467 14.558 34.2523 14.259 33.975 13.895C33.7063 13.5223 33.5633 13.128 33.546 12.712C33.546 12.6427 33.572 12.582 33.624 12.53C33.6847 12.4693 33.754 12.439 33.832 12.439H34.495C34.599 12.439 34.677 12.465 34.729 12.517C34.781 12.569 34.8157 12.6297 34.833 12.699C34.8763 12.907 34.9803 13.115 35.145 13.323C35.3183 13.5223 35.5567 13.6913 35.86 13.83C36.172 13.96 36.5707 14.025 37.056 14.025C37.8013 14.025 38.3473 13.895 38.694 13.635C39.0493 13.3663 39.227 13.011 39.227 12.569C39.227 12.2657 39.1317 12.023 38.941 11.841C38.759 11.6503 38.4773 11.4813 38.096 11.334C37.7147 11.1867 37.2207 11.0263 36.614 10.853C35.9813 10.671 35.457 10.4717 35.041 10.255C34.625 10.0383 34.313 9.76967 34.105 9.449C33.9057 9.12833 33.806 8.721 33.806 8.227C33.806 7.759 33.9317 7.343 34.183 6.979C34.4343 6.60633 34.794 6.31167 35.262 6.095C35.7387 5.87833 36.315 5.77 36.991 5.77C37.5283 5.77 37.9963 5.84367 38.395 5.991C38.8023 6.12967 39.1403 6.32033 39.409 6.563C39.6777 6.797 39.8813 7.05267 40.02 7.33C40.1587 7.59867 40.2323 7.863 40.241 8.123C40.241 8.18367 40.2193 8.24433 40.176 8.305C40.1327 8.357 40.0633 8.383 39.968 8.383H39.279C39.2183 8.383 39.1533 8.36567 39.084 8.331C39.0233 8.29633 38.9757 8.23133 38.941 8.136C38.889 7.78067 38.6897 7.48167 38.343 7.239C37.9963 6.99633 37.5457 6.875 36.991 6.875C36.4277 6.875 35.9683 6.98333 35.613 7.2C35.2663 7.41667 35.093 7.75467 35.093 8.214C35.093 8.50867 35.1753 8.75567 35.34 8.955C35.5047 9.14567 35.7647 9.31467 36.12 9.462C36.4753 9.60933 36.939 9.76533 37.511 9.93C38.2043 10.1207 38.772 10.3243 39.214 10.541C39.656 10.749 39.981 11.0133 40.189 11.334C40.4057 11.646 40.514 12.049 40.514 12.543C40.514 13.089 40.371 13.557 40.085 13.947C39.799 14.3283 39.396 14.623 38.876 14.831C38.3647 15.0303 37.758 15.13 37.056 15.13ZM44.7399 15.13C43.8472 15.13 43.1366 14.857 42.6079 14.311C42.0792 13.7563 41.7889 13.0023 41.7369 12.049C41.7282 11.9363 41.7239 11.7933 41.7239 11.62C41.7239 11.438 41.7282 11.2907 41.7369 11.178C41.7716 10.5627 41.9146 10.0253 42.1659 9.566C42.4172 9.098 42.7596 8.73833 43.1929 8.487C43.6349 8.23567 44.1506 8.11 44.7399 8.11C45.3986 8.11 45.9489 8.24867 46.3909 8.526C46.8416 8.80333 47.1839 9.19767 47.4179 9.709C47.6519 10.2203 47.7689 10.8183 47.7689 11.503V11.724C47.7689 11.8193 47.7386 11.893 47.6779 11.945C47.6259 11.997 47.5566 12.023 47.4699 12.023H42.9719C42.9719 12.0317 42.9719 12.049 42.9719 12.075C42.9719 12.101 42.9719 12.1227 42.9719 12.14C42.9892 12.4953 43.0672 12.829 43.2059 13.141C43.3446 13.4443 43.5439 13.6913 43.8039 13.882C44.0639 14.0727 44.3759 14.168 44.7399 14.168C45.0519 14.168 45.3119 14.1203 45.5199 14.025C45.7279 13.9297 45.8969 13.8257 46.0269 13.713C46.1569 13.5917 46.2436 13.5007 46.2869 13.44C46.3649 13.3273 46.4256 13.2623 46.4689 13.245C46.5122 13.219 46.5816 13.206 46.6769 13.206H47.3009C47.3876 13.206 47.4569 13.232 47.5089 13.284C47.5696 13.3273 47.5956 13.3923 47.5869 13.479C47.5782 13.609 47.5089 13.7693 47.3789 13.96C47.2489 14.142 47.0626 14.324 46.8199 14.506C46.5772 14.688 46.2826 14.8397 45.9359 14.961C45.5892 15.0737 45.1906 15.13 44.7399 15.13ZM42.9719 11.126H46.5339V11.087C46.5339 10.697 46.4602 10.3503 46.3129 10.047C46.1742 9.74367 45.9706 9.50533 45.7019 9.332C45.4332 9.15 45.1126 9.059 44.7399 9.059C44.3672 9.059 44.0466 9.15 43.7779 9.332C43.5179 9.50533 43.3186 9.74367 43.1799 10.047C43.0412 10.3503 42.9719 10.697 42.9719 11.087V11.126ZM51.2083 15.13C50.775 15.13 50.3807 15.0433 50.0253 14.87C49.67 14.6967 49.384 14.4627 49.1673 14.168C48.9507 13.8733 48.8423 13.5397 48.8423 13.167C48.8423 12.569 49.085 12.0923 49.5703 11.737C50.0557 11.3817 50.6883 11.1477 51.4683 11.035L53.4053 10.762V10.385C53.4053 9.969 53.284 9.644 53.0413 9.41C52.8073 9.176 52.4217 9.059 51.8843 9.059C51.4943 9.059 51.178 9.137 50.9353 9.293C50.7013 9.449 50.5367 9.64833 50.4413 9.891C50.3893 10.021 50.2983 10.086 50.1683 10.086H49.5833C49.488 10.086 49.4143 10.06 49.3623 10.008C49.319 9.94733 49.2973 9.878 49.2973 9.8C49.2973 9.67 49.345 9.50967 49.4403 9.319C49.5443 9.12833 49.7003 8.942 49.9083 8.76C50.1163 8.578 50.3807 8.42633 50.7013 8.305C51.0307 8.175 51.4293 8.11 51.8973 8.11C52.4173 8.11 52.855 8.17933 53.2103 8.318C53.5657 8.448 53.843 8.62567 54.0423 8.851C54.2503 9.07633 54.3977 9.332 54.4843 9.618C54.5797 9.904 54.6273 10.1943 54.6273 10.489V14.701C54.6273 14.7877 54.597 14.8613 54.5363 14.922C54.4843 14.974 54.415 15 54.3283 15H53.7303C53.635 15 53.5613 14.974 53.5093 14.922C53.4573 14.8613 53.4313 14.7877 53.4313 14.701V14.142C53.3187 14.298 53.167 14.454 52.9763 14.61C52.7857 14.7573 52.5473 14.883 52.2613 14.987C51.9753 15.0823 51.6243 15.13 51.2083 15.13ZM51.4813 14.155C51.8367 14.155 52.1617 14.0813 52.4563 13.934C52.751 13.778 52.9807 13.5397 53.1453 13.219C53.3187 12.8983 53.4053 12.4953 53.4053 12.01V11.646L51.8973 11.867C51.282 11.9537 50.8183 12.101 50.5063 12.309C50.1943 12.5083 50.0383 12.764 50.0383 13.076C50.0383 13.3187 50.1077 13.5223 50.2463 13.687C50.3937 13.843 50.5757 13.96 50.7923 14.038C51.0177 14.116 51.2473 14.155 51.4813 14.155ZM56.7952 15C56.7085 15 56.6348 14.974 56.5742 14.922C56.5222 14.8613 56.4962 14.7877 56.4962 14.701V8.552C56.4962 8.46533 56.5222 8.39167 56.5742 8.331C56.6348 8.27033 56.7085 8.24 56.7952 8.24H57.3932C57.4798 8.24 57.5535 8.27033 57.6142 8.331C57.6748 8.39167 57.7052 8.46533 57.7052 8.552V9.124C57.8785 8.82933 58.1168 8.60833 58.4202 8.461C58.7235 8.31367 59.0875 8.24 59.5122 8.24H60.0322C60.1188 8.24 60.1882 8.27033 60.2402 8.331C60.2922 8.383 60.3182 8.45233 60.3182 8.539V9.072C60.3182 9.15867 60.2922 9.228 60.2402 9.28C60.1882 9.332 60.1188 9.358 60.0322 9.358H59.2522C58.7842 9.358 58.4158 9.49667 58.1472 9.774C57.8785 10.0427 57.7442 10.411 57.7442 10.879V14.701C57.7442 14.7877 57.7138 14.8613 57.6532 14.922C57.5925 14.974 57.5188 15 57.4322 15H56.7952ZM64.0377 15.13C63.4224 15.13 62.8894 15.013 62.4387 14.779C61.9967 14.5363 61.6544 14.194 61.4117 13.752C61.169 13.3013 61.039 12.764 61.0217 12.14C61.013 12.01 61.0087 11.8367 61.0087 11.62C61.0087 11.4033 61.013 11.23 61.0217 11.1C61.039 10.476 61.169 9.943 61.4117 9.501C61.6544 9.05033 61.9967 8.708 62.4387 8.474C62.8894 8.23133 63.4224 8.11 64.0377 8.11C64.5404 8.11 64.9694 8.17933 65.3247 8.318C65.6887 8.45667 65.9877 8.63433 66.2217 8.851C66.4557 9.06767 66.629 9.30167 66.7417 9.553C66.863 9.80433 66.928 10.0427 66.9367 10.268C66.9454 10.3547 66.9194 10.424 66.8587 10.476C66.798 10.528 66.7244 10.554 66.6377 10.554H66.0137C65.927 10.554 65.862 10.5367 65.8187 10.502C65.7754 10.4587 65.732 10.3893 65.6887 10.294C65.5327 9.86933 65.3204 9.57033 65.0517 9.397C64.783 9.22367 64.4494 9.137 64.0507 9.137C63.5307 9.137 63.106 9.29733 62.7767 9.618C62.456 9.93867 62.2827 10.4543 62.2567 11.165C62.248 11.477 62.248 11.7803 62.2567 12.075C62.2827 12.7943 62.456 13.3143 62.7767 13.635C63.106 13.947 63.5307 14.103 64.0507 14.103C64.4494 14.103 64.783 14.0163 65.0517 13.843C65.3204 13.6697 65.5327 13.3707 65.6887 12.946C65.732 12.8507 65.7754 12.7857 65.8187 12.751C65.862 12.7077 65.927 12.686 66.0137 12.686H66.6377C66.7244 12.686 66.798 12.712 66.8587 12.764C66.9194 12.816 66.9454 12.8853 66.9367 12.972C66.928 13.154 66.889 13.3403 66.8197 13.531C66.7504 13.7217 66.6377 13.9167 66.4817 14.116C66.3344 14.3067 66.148 14.48 65.9227 14.636C65.6974 14.7833 65.4244 14.9047 65.1037 15C64.7917 15.0867 64.4364 15.13 64.0377 15.13ZM68.7926 15C68.7059 15 68.6322 14.974 68.5716 14.922C68.5196 14.8613 68.4936 14.7877 68.4936 14.701V6.069C68.4936 5.98233 68.5196 5.913 68.5716 5.861C68.6322 5.80033 68.7059 5.77 68.7926 5.77H69.4426C69.5379 5.77 69.6116 5.80033 69.6636 5.861C69.7156 5.913 69.7416 5.98233 69.7416 6.069V9.098C69.9756 8.80333 70.2616 8.565 70.5996 8.383C70.9376 8.201 71.3666 8.11 71.8866 8.11C72.4499 8.11 72.9266 8.23567 73.3166 8.487C73.7152 8.72967 74.0142 9.072 74.2136 9.514C74.4216 9.94733 74.5256 10.4543 74.5256 11.035V14.701C74.5256 14.7877 74.4996 14.8613 74.4476 14.922C74.3956 14.974 74.3219 15 74.2266 15H73.5766C73.4899 15 73.4162 14.974 73.3556 14.922C73.3036 14.8613 73.2776 14.7877 73.2776 14.701V11.1C73.2776 10.4933 73.1302 10.021 72.8356 9.683C72.5409 9.33633 72.1076 9.163 71.5356 9.163C70.9982 9.163 70.5649 9.33633 70.2356 9.683C69.9062 10.021 69.7416 10.4933 69.7416 11.1V14.701C69.7416 14.7877 69.7156 14.8613 69.6636 14.922C69.6116 14.974 69.5379 15 69.4426 15H68.7926ZM82.93 15.13C82.41 15.13 81.9766 15.039 81.63 14.857C81.2833 14.6663 81.006 14.4323 80.798 14.155V14.701C80.798 14.7877 80.7676 14.8613 80.707 14.922C80.655 14.974 80.5856 15 80.499 15H79.901C79.8143 15 79.7406 14.974 79.68 14.922C79.628 14.8613 79.602 14.7877 79.602 14.701V6.069C79.602 5.98233 79.628 5.913 79.68 5.861C79.7406 5.80033 79.8143 5.77 79.901 5.77H80.525C80.6203 5.77 80.694 5.80033 80.746 5.861C80.798 5.913 80.824 5.98233 80.824 6.069V9.059C81.0406 8.79033 81.318 8.565 81.656 8.383C82.0026 8.201 82.4273 8.11 82.93 8.11C83.4153 8.11 83.827 8.19667 84.165 8.37C84.5116 8.53467 84.7933 8.76433 85.01 9.059C85.2353 9.35367 85.4043 9.68733 85.517 10.06C85.6296 10.4327 85.6903 10.8227 85.699 11.23C85.7076 11.3687 85.712 11.4987 85.712 11.62C85.712 11.7413 85.7076 11.8713 85.699 12.01C85.6903 12.426 85.6296 12.8203 85.517 13.193C85.4043 13.5657 85.2353 13.8993 85.01 14.194C84.7933 14.48 84.5116 14.7097 84.165 14.883C83.827 15.0477 83.4153 15.13 82.93 15.13ZM82.657 14.077C83.1076 14.077 83.4586 13.9817 83.71 13.791C83.97 13.5917 84.1563 13.336 84.269 13.024C84.3816 12.7033 84.4466 12.361 84.464 11.997C84.4726 11.7457 84.4726 11.4943 84.464 11.243C84.4466 10.879 84.3816 10.541 84.269 10.229C84.1563 9.90833 83.97 9.65267 83.71 9.462C83.4586 9.26267 83.1076 9.163 82.657 9.163C82.2496 9.163 81.9116 9.25833 81.643 9.449C81.3743 9.63967 81.1706 9.88233 81.032 10.177C80.902 10.4717 80.8326 10.7707 80.824 11.074C80.8153 11.2127 80.811 11.3817 80.811 11.581C80.811 11.7717 80.8153 11.9363 80.824 12.075C80.8413 12.3957 80.9106 12.712 81.032 13.024C81.162 13.3273 81.357 13.5787 81.617 13.778C81.8856 13.9773 82.2323 14.077 82.657 14.077ZM90.0894 15.13C89.4307 15.13 88.8804 15.0043 88.4384 14.753C87.9964 14.5017 87.6584 14.155 87.4244 13.713C87.1904 13.2623 87.0604 12.751 87.0344 12.179C87.0257 12.0317 87.0214 11.8453 87.0214 11.62C87.0214 11.386 87.0257 11.1997 87.0344 11.061C87.0604 10.4803 87.1904 9.969 87.4244 9.527C87.6671 9.085 88.0094 8.73833 88.4514 8.487C88.8934 8.23567 89.4394 8.11 90.0894 8.11C90.7394 8.11 91.2854 8.23567 91.7274 8.487C92.1694 8.73833 92.5074 9.085 92.7414 9.527C92.9841 9.969 93.1184 10.4803 93.1444 11.061C93.1531 11.1997 93.1574 11.386 93.1574 11.62C93.1574 11.8453 93.1531 12.0317 93.1444 12.179C93.1184 12.751 92.9884 13.2623 92.7544 13.713C92.5204 14.155 92.1824 14.5017 91.7404 14.753C91.2984 15.0043 90.7481 15.13 90.0894 15.13ZM90.0894 14.129C90.6267 14.129 91.0557 13.96 91.3764 13.622C91.6971 13.2753 91.8704 12.7727 91.8964 12.114C91.9051 11.984 91.9094 11.8193 91.9094 11.62C91.9094 11.4207 91.9051 11.256 91.8964 11.126C91.8704 10.4673 91.6971 9.969 91.3764 9.631C91.0557 9.28433 90.6267 9.111 90.0894 9.111C89.5521 9.111 89.1187 9.28433 88.7894 9.631C88.4687 9.969 88.2997 10.4673 88.2824 11.126C88.2737 11.256 88.2694 11.4207 88.2694 11.62C88.2694 11.8193 88.2737 11.984 88.2824 12.114C88.2997 12.7727 88.4687 13.2753 88.7894 13.622C89.1187 13.96 89.5521 14.129 90.0894 14.129ZM97.5542 15.13C96.8956 15.13 96.3452 15.0043 95.9032 14.753C95.4612 14.5017 95.1232 14.155 94.8892 13.713C94.6552 13.2623 94.5252 12.751 94.4992 12.179C94.4906 12.0317 94.4862 11.8453 94.4862 11.62C94.4862 11.386 94.4906 11.1997 94.4992 11.061C94.5252 10.4803 94.6552 9.969 94.8892 9.527C95.1319 9.085 95.4742 8.73833 95.9162 8.487C96.3582 8.23567 96.9042 8.11 97.5542 8.11C98.2042 8.11 98.7502 8.23567 99.1922 8.487C99.6342 8.73833 99.9722 9.085 100.206 9.527C100.449 9.969 100.583 10.4803 100.609 11.061C100.618 11.1997 100.622 11.386 100.622 11.62C100.622 11.8453 100.618 12.0317 100.609 12.179C100.583 12.751 100.453 13.2623 100.219 13.713C99.9852 14.155 99.6472 14.5017 99.2052 14.753C98.7632 15.0043 98.2129 15.13 97.5542 15.13ZM97.5542 14.129C98.0916 14.129 98.5206 13.96 98.8412 13.622C99.1619 13.2753 99.3352 12.7727 99.3612 12.114C99.3699 11.984 99.3742 11.8193 99.3742 11.62C99.3742 11.4207 99.3699 11.256 99.3612 11.126C99.3352 10.4673 99.1619 9.969 98.8412 9.631C98.5206 9.28433 98.0916 9.111 97.5542 9.111C97.0169 9.111 96.5836 9.28433 96.2542 9.631C95.9336 9.969 95.7646 10.4673 95.7472 11.126C95.7386 11.256 95.7342 11.4207 95.7342 11.62C95.7342 11.8193 95.7386 11.984 95.7472 12.114C95.7646 12.7727 95.9336 13.2753 96.2542 13.622C96.5836 13.96 97.0169 14.129 97.5542 14.129ZM102.562 15C102.475 15 102.402 14.974 102.341 14.922C102.289 14.8613 102.263 14.7877 102.263 14.701V6.069C102.263 5.98233 102.289 5.913 102.341 5.861C102.402 5.80033 102.475 5.77 102.562 5.77H103.173C103.26 5.77 103.329 5.80033 103.381 5.861C103.442 5.913 103.472 5.98233 103.472 6.069V10.593L106.033 8.461C106.137 8.37433 106.215 8.318 106.267 8.292C106.328 8.25733 106.423 8.24 106.553 8.24H107.242C107.32 8.24 107.385 8.266 107.437 8.318C107.489 8.37 107.515 8.435 107.515 8.513C107.515 8.54767 107.502 8.58667 107.476 8.63C107.459 8.67333 107.42 8.71667 107.359 8.76L104.356 11.256L107.684 14.493C107.788 14.5797 107.84 14.6577 107.84 14.727C107.84 14.805 107.814 14.87 107.762 14.922C107.71 14.974 107.645 15 107.567 15H106.891C106.761 15 106.666 14.987 106.605 14.961C106.544 14.9263 106.466 14.8657 106.371 14.779L103.472 12.01V14.701C103.472 14.7877 103.442 14.8613 103.381 14.922C103.329 14.974 103.26 15 103.173 15H102.562ZM111.166 15.13C110.681 15.13 110.265 15.0693 109.918 14.948C109.572 14.8267 109.29 14.6793 109.073 14.506C108.857 14.3327 108.692 14.1593 108.579 13.986C108.475 13.8127 108.419 13.674 108.41 13.57C108.402 13.4747 108.432 13.401 108.501 13.349C108.571 13.297 108.64 13.271 108.709 13.271H109.281C109.333 13.271 109.372 13.2797 109.398 13.297C109.433 13.3057 109.476 13.3403 109.528 13.401C109.641 13.5223 109.767 13.6437 109.905 13.765C110.044 13.8863 110.213 13.986 110.412 14.064C110.62 14.142 110.876 14.181 111.179 14.181C111.621 14.181 111.985 14.0987 112.271 13.934C112.557 13.7607 112.7 13.5093 112.7 13.18C112.7 12.9633 112.64 12.79 112.518 12.66C112.406 12.53 112.198 12.413 111.894 12.309C111.6 12.205 111.192 12.0967 110.672 11.984C110.152 11.8627 109.741 11.7153 109.437 11.542C109.134 11.36 108.917 11.1477 108.787 10.905C108.657 10.6537 108.592 10.372 108.592 10.06C108.592 9.73933 108.688 9.43167 108.878 9.137C109.069 8.83367 109.346 8.58667 109.71 8.396C110.083 8.20533 110.547 8.11 111.101 8.11C111.552 8.11 111.938 8.16633 112.258 8.279C112.579 8.39167 112.843 8.53467 113.051 8.708C113.259 8.87267 113.415 9.03733 113.519 9.202C113.623 9.36667 113.68 9.50533 113.688 9.618C113.697 9.70467 113.671 9.77833 113.61 9.839C113.55 9.891 113.48 9.917 113.402 9.917H112.856C112.796 9.917 112.744 9.904 112.7 9.878C112.666 9.852 112.631 9.82167 112.596 9.787C112.51 9.67433 112.406 9.56167 112.284 9.449C112.172 9.33633 112.02 9.24533 111.829 9.176C111.647 9.098 111.405 9.059 111.101 9.059C110.668 9.059 110.343 9.15 110.126 9.332C109.91 9.514 109.801 9.74367 109.801 10.021C109.801 10.1857 109.849 10.333 109.944 10.463C110.04 10.593 110.222 10.71 110.49 10.814C110.759 10.918 111.158 11.0307 111.686 11.152C112.258 11.2647 112.709 11.4163 113.038 11.607C113.368 11.7977 113.602 12.0187 113.74 12.27C113.879 12.5213 113.948 12.8117 113.948 13.141C113.948 13.505 113.84 13.8387 113.623 14.142C113.415 14.4453 113.103 14.688 112.687 14.87C112.28 15.0433 111.773 15.13 111.166 15.13Z" fill="black" fill-opacity="0.24"/>
</svg>
